<svg width="21" height="20" viewBox="0 0 21 20" fill="none" xmlns="http://www.w3.org/2000/svg">
<path d="M5.91387 7.29058C5.91387 5.65788 4.58963 4.33394 2.95664 4.33394C1.32365 4.33394 0 5.65788 0 7.29058C0 8.92445 1.32336 10.2478 2.95664 10.2478C4.58993 10.2478 5.91387 8.92445 5.91387 7.29058ZM17.7058 4.91151C16.0731 4.91151 14.7491 6.23545 14.7491 7.86815C14.7491 9.50202 16.0731 10.8248 17.7058 10.8248C19.3387 10.8248 20.6627 9.50202 20.6627 7.86815C20.6627 6.23545 19.339 4.91151 17.7058 4.91151ZM15.0203 11.1595C14.8147 10.9061 14.5237 10.6128 14.1896 10.3052C13.298 9.14982 11.9035 8.40228 10.3315 8.40228C8.93232 8.40228 7.67456 8.99471 6.78562 9.93876C6.28065 10.3781 5.83165 10.807 5.54593 11.1598L5.35467 11.3933C4.46252 12.4811 3.35199 13.8345 3.36015 16.1311C3.36803 18.2638 5.10481 20 7.2314 20C7.82156 20.0013 8.40403 19.8662 8.93338 19.6053C9.46273 19.3444 9.92464 18.9647 10.2831 18.4959C10.6416 18.9649 11.1036 19.3446 11.6332 19.6056C12.1627 19.8665 12.7453 20.0015 13.3357 20C15.4614 20 17.1979 18.2641 17.206 16.1311C17.2142 13.8345 16.1034 12.4811 15.2115 11.3933L15.0203 11.1595Z" fill="white"/>
<path d="M10.5364 6.51622C12.3358 6.51622 13.7946 5.05751 13.7946 3.25811C13.7946 1.45871 12.3358 0 10.5364 0C8.73704 0 7.27834 1.45871 7.27834 3.25811C7.27834 5.05751 8.73704 6.51622 10.5364 6.51622Z" fill="white"/>
</svg>
